# xmcd
# Copyright (C) 1995-1998 Ti Kan
#
# Track frame offsets:
#       150
#       19432
#       34827
#       48402
#       65355
#       76747
#       86797
#       103162
#       122750
#       138622
#       149700
#       183670
#       195712
#       204070
#       215670
#       236115
#       251447
#       266820
#       276680
#       284987
#       298270
#       314007
#
# Disc length: 4395 seconds
#
# Revision: 0
# Processed by: cddbd v1.5.2PL0 Copyright (c) Steve Scherf et al.
# Submitted via: CD-Import v1.0
#
DISCID=79112916
DTITLE=Natalie Cole - Unforgettable
DYEAR=1900
DGENRE=
TTITLE0=The Very Thought Of You
TTITLE1=Paper Moon
TTITLE2=Route 66
TTITLE3=Mona Lisa
TTITLE4=L-O-V-E
TTITLE5=This Can't Be Love
TTITLE6=Smile
TTITLE7=Lush Life
TTITLE8=That Sunday That Summer
TTITLE9=Orange Colored Sky
TTITLE10=A Medley Of - For Sentimental Raesons
TTITLE11=Straighten Up And Fly Right
TTITLE12=Avalon
TTITLE13=Don't Get Around Much Anymore
TTITLE14=Too Young
TTITLE15=Nature Boy
TTITLE16=Darling, Je Vous Aimes Beaucoup
TTITLE17=Almost Like Being In Love
TTITLE18=Thou Swell
TTITLE19=Non Dimenticar
TTITLE20=Our Love Is Here To Stay
TTITLE21=Unforgettable
EXTD=
EXTT0=
EXTT1=
EXTT2=
EXTT3=
EXTT4=
EXTT5=
EXTT6=
EXTT7=
EXTT8=
EXTT9=
EXTT10=
EXTT11=
EXTT12=
EXTT13=
EXTT14=
EXTT15=
EXTT16=
EXTT17=
EXTT18=
EXTT19=
EXTT20=
EXTT21=
PLAYORDER=
